<!-- Generated by IcoMoon.io -->
<svg version="1.1" xmlns="http://www.w3.org/2000/svg" width="512" height="512" viewBox="0 0 512 512">
<title></title>
<g id="icomoon-ignore">
</g>
<path fill="#000" d="M373.936 472.464c0 0 5.36-32.192-27.696-71.504 32.176-90.256 36.64-172.448 36.64-172.448s66.128 15.2 66.128 80.416c-0.016 111.696-75.072 163.536-75.072 163.536zM191.664 433.248c0 0-44.288-142.128-44.288-201.088 0-26.528 2.992-50.128 7.648-71.552h201.76c4.688 21.44 7.696 45.056 7.696 71.568 0 58.064-44.16 201.072-44.16 201.072h-128.656zM255.84 193.104c-22.688 0-41.088 18.4-41.088 41.104 0 22.688 18.4 41.104 41.088 41.104 22.704 0 41.104-18.4 41.104-41.104 0.016-22.704-18.4-41.104-41.104-41.104zM247.008 9.536v-55.968h16v54.544c18.288 13.312 67.776 55.648 90.16 137.2h-194.56c21.632-79.312 68.736-121.184 88.4-135.776zM138.064 472.464c0 0-75.056-51.84-75.056-163.536 0-65.216 66.128-80.416 66.128-80.416s4.464 82.192 36.624 172.448c-33.072 39.328-27.696 71.504-27.696 71.504zM283.056 480.72l-13.408-13.408-14.288 44.688-16.992-44.688-11.616 23.216-16.992-42h92.032l-18.736 32.192z"></path>
</svg>
