<svg width="283" height="38" viewBox="0 0 283 38" fill="none" xmlns="http://www.w3.org/2000/svg">
<path d="M21.64 37L19.912 29.848H10.216L8.53598 37H0.375977L10.408 3.736H19.96L29.992 37H21.64ZM11.56 24.136H18.568L15.064 9.448L11.56 24.136Z" fill="white"/>
<path d="M39.0565 37.816C36.8485 37.816 35.1205 37.192 33.8725 35.944C32.6565 34.664 32.0485 32.856 32.0485 30.52V1.38399L39.6325 0.567993V30.232C39.6325 31.288 40.0645 31.816 40.9285 31.816C41.3765 31.816 41.7925 31.736 42.1765 31.576L43.6645 36.952C42.2885 37.528 40.7525 37.816 39.0565 37.816Z" fill="white"/>
<path d="M66.5601 29.608C66.5601 30.568 66.6881 31.272 66.9441 31.72C67.2321 32.168 67.6801 32.504 68.2881 32.728L66.7041 37.672C65.1361 37.544 63.8561 37.208 62.8641 36.664C61.8721 36.088 61.1041 35.192 60.5601 33.976C58.8961 36.536 56.3361 37.816 52.8801 37.816C50.3521 37.816 48.3361 37.08 46.8321 35.608C45.3281 34.136 44.5761 32.216 44.5761 29.848C44.5761 27.064 45.6001 24.936 47.6481 23.464C49.6961 21.992 52.6561 21.256 56.5281 21.256H59.1201V20.152C59.1201 18.648 58.8001 17.624 58.1601 17.08C57.5201 16.504 56.4001 16.216 54.8001 16.216C53.9681 16.216 52.9601 16.344 51.7761 16.6C50.5921 16.824 49.3761 17.144 48.1281 17.56L46.4001 12.568C48.0001 11.96 49.6321 11.496 51.2961 11.176C52.9921 10.856 54.5601 10.696 56.0001 10.696C59.6481 10.696 62.3201 11.448 64.0161 12.952C65.7121 14.456 66.5601 16.712 66.5601 19.72V29.608ZM55.0881 32.392C56.8161 32.392 58.1601 31.576 59.1201 29.944V25.432H57.2481C55.5201 25.432 54.2241 25.736 53.3601 26.344C52.5281 26.952 52.1121 27.896 52.1121 29.176C52.1121 30.2 52.3681 31 52.8801 31.576C53.4241 32.12 54.1601 32.392 55.0881 32.392Z" fill="white"/>
<path d="M87.529 10.696C89.737 10.696 91.465 11.368 92.713 12.712C93.961 14.056 94.585 15.944 94.585 18.376V37H87.001V19.672C87.001 18.392 86.793 17.512 86.377 17.032C85.993 16.52 85.401 16.264 84.601 16.264C83.065 16.264 81.593 17.368 80.185 19.576V37H72.601V11.512H79.225L79.753 14.536C80.841 13.256 82.009 12.296 83.257 11.656C84.537 11.016 85.961 10.696 87.529 10.696Z" fill="white"/>
<path d="M120.56 29.608C120.56 30.568 120.688 31.272 120.944 31.72C121.232 32.168 121.68 32.504 122.288 32.728L120.704 37.672C119.136 37.544 117.856 37.208 116.864 36.664C115.872 36.088 115.104 35.192 114.56 33.976C112.896 36.536 110.336 37.816 106.88 37.816C104.352 37.816 102.336 37.08 100.832 35.608C99.3281 34.136 98.5761 32.216 98.5761 29.848C98.5761 27.064 99.6001 24.936 101.648 23.464C103.696 21.992 106.656 21.256 110.528 21.256H113.12V20.152C113.12 18.648 112.8 17.624 112.16 17.08C111.52 16.504 110.4 16.216 108.8 16.216C107.968 16.216 106.96 16.344 105.776 16.6C104.592 16.824 103.376 17.144 102.128 17.56L100.4 12.568C102 11.96 103.632 11.496 105.296 11.176C106.992 10.856 108.56 10.696 110 10.696C113.648 10.696 116.32 11.448 118.016 12.952C119.712 14.456 120.56 16.712 120.56 19.72V29.608ZM109.088 32.392C110.816 32.392 112.16 31.576 113.12 29.944V25.432H111.248C109.52 25.432 108.224 25.736 107.36 26.344C106.528 26.952 106.112 27.896 106.112 29.176C106.112 30.2 106.368 31 106.88 31.576C107.424 32.12 108.16 32.392 109.088 32.392Z" fill="white"/>
<path d="M148.84 2.91999C151.336 2.91999 153.496 3.27199 155.32 3.976C157.176 4.68 158.856 5.752 160.36 7.19199L156.712 11.464C154.44 9.608 152.008 8.67999 149.416 8.67999C148.04 8.67999 146.952 8.96799 146.152 9.54399C145.352 10.088 144.952 10.888 144.952 11.944C144.952 12.68 145.128 13.288 145.48 13.768C145.832 14.216 146.456 14.648 147.352 15.064C148.248 15.48 149.592 15.976 151.384 16.552C154.776 17.64 157.272 18.984 158.872 20.584C160.472 22.152 161.272 24.392 161.272 27.304C161.272 29.384 160.744 31.224 159.688 32.824C158.632 34.392 157.112 35.624 155.128 36.52C153.144 37.384 150.792 37.816 148.072 37.816C145.352 37.816 142.936 37.384 140.824 36.52C138.744 35.656 136.952 34.504 135.448 33.064L139.432 28.696C140.712 29.784 142.024 30.6 143.368 31.144C144.744 31.688 146.232 31.96 147.832 31.96C149.464 31.96 150.744 31.608 151.672 30.904C152.632 30.168 153.112 29.16 153.112 27.88C153.112 27.048 152.936 26.36 152.584 25.816C152.232 25.24 151.624 24.728 150.76 24.28C149.896 23.832 148.648 23.352 147.016 22.84C143.336 21.72 140.712 20.344 139.144 18.712C137.608 17.08 136.84 15.016 136.84 12.52C136.84 10.6 137.352 8.91999 138.376 7.48C139.4 6.008 140.824 4.88799 142.648 4.11999C144.472 3.31999 146.536 2.91999 148.84 2.91999Z" fill="white"/>
<path d="M176.5 10.696C180.404 10.696 183.46 11.896 185.668 14.296C187.876 16.664 188.98 19.992 188.98 24.28C188.98 27 188.468 29.384 187.444 31.432C186.452 33.448 185.012 35.016 183.124 36.136C181.268 37.256 179.06 37.816 176.5 37.816C172.628 37.816 169.572 36.632 167.332 34.264C165.124 31.864 164.02 28.52 164.02 24.232C164.02 21.512 164.516 19.144 165.508 17.128C166.532 15.08 167.972 13.496 169.828 12.376C171.716 11.256 173.94 10.696 176.5 10.696ZM176.5 16.264C174.964 16.264 173.812 16.92 173.044 18.232C172.276 19.512 171.892 21.512 171.892 24.232C171.892 27.016 172.26 29.048 172.996 30.328C173.764 31.608 174.932 32.248 176.5 32.248C178.036 32.248 179.188 31.608 179.956 30.328C180.724 29.016 181.108 27 181.108 24.28C181.108 21.496 180.724 19.464 179.956 18.184C179.22 16.904 178.068 16.264 176.5 16.264Z" fill="white"/>
<path d="M213.279 29.608C213.279 30.568 213.407 31.272 213.663 31.72C213.951 32.168 214.399 32.504 215.007 32.728L213.423 37.672C211.855 37.544 210.575 37.208 209.583 36.664C208.591 36.088 207.823 35.192 207.279 33.976C205.615 36.536 203.055 37.816 199.599 37.816C197.071 37.816 195.055 37.08 193.551 35.608C192.047 34.136 191.295 32.216 191.295 29.848C191.295 27.064 192.319 24.936 194.367 23.464C196.415 21.992 199.375 21.256 203.247 21.256H205.839V20.152C205.839 18.648 205.519 17.624 204.879 17.08C204.239 16.504 203.119 16.216 201.519 16.216C200.687 16.216 199.679 16.344 198.495 16.6C197.311 16.824 196.095 17.144 194.847 17.56L193.119 12.568C194.719 11.96 196.351 11.496 198.015 11.176C199.711 10.856 201.279 10.696 202.719 10.696C206.367 10.696 209.039 11.448 210.735 12.952C212.431 14.456 213.279 16.712 213.279 19.72V29.608ZM201.807 32.392C203.535 32.392 204.879 31.576 205.839 29.944V25.432H203.967C202.239 25.432 200.943 25.736 200.079 26.344C199.247 26.952 198.831 27.896 198.831 29.176C198.831 30.2 199.087 31 199.599 31.576C200.143 32.12 200.879 32.392 201.807 32.392Z" fill="white"/>
<path d="M233.144 10.792C234.072 10.792 234.92 10.904 235.688 11.128L234.488 18.472C233.528 18.248 232.76 18.136 232.184 18.136C230.68 18.136 229.528 18.664 228.728 19.72C227.96 20.744 227.352 22.296 226.904 24.376V37H219.32V11.512H225.944L226.568 16.456C227.144 14.696 228.008 13.32 229.16 12.328C230.344 11.304 231.672 10.792 233.144 10.792Z" fill="white"/>
<path d="M259.356 23.752C259.356 24.808 259.308 25.72 259.212 26.488H243.42C243.676 28.632 244.284 30.136 245.244 31C246.204 31.864 247.532 32.296 249.228 32.296C250.252 32.296 251.244 32.12 252.204 31.768C253.164 31.384 254.204 30.808 255.324 30.04L258.444 34.264C255.468 36.632 252.156 37.816 248.508 37.816C244.38 37.816 241.212 36.6 239.004 34.168C236.796 31.736 235.692 28.472 235.692 24.376C235.692 21.784 236.156 19.464 237.084 17.416C238.012 15.336 239.372 13.704 241.164 12.52C242.956 11.304 245.1 10.696 247.596 10.696C251.276 10.696 254.156 11.848 256.236 14.152C258.316 16.456 259.356 19.656 259.356 23.752ZM251.916 21.592C251.852 17.688 250.476 15.736 247.788 15.736C246.476 15.736 245.452 16.216 244.716 17.176C244.012 18.136 243.58 19.72 243.42 21.928H251.916V21.592Z" fill="white"/>
<path d="M272.593 10.696C274.417 10.696 276.129 10.968 277.729 11.512C279.329 12.056 280.737 12.824 281.953 13.816L279.169 18.088C277.089 16.776 274.993 16.12 272.881 16.12C271.889 16.12 271.121 16.296 270.577 16.648C270.065 16.968 269.809 17.432 269.809 18.04C269.809 18.52 269.921 18.92 270.145 19.24C270.401 19.528 270.897 19.832 271.633 20.152C272.369 20.472 273.505 20.856 275.041 21.304C277.697 22.072 279.665 23.08 280.945 24.328C282.257 25.544 282.913 27.24 282.913 29.416C282.913 31.144 282.417 32.648 281.425 33.928C280.433 35.176 279.073 36.136 277.345 36.808C275.617 37.48 273.697 37.816 271.585 37.816C269.441 37.816 267.441 37.48 265.585 36.808C263.761 36.136 262.209 35.208 260.929 34.024L264.625 29.896C266.769 31.56 269.025 32.392 271.393 32.392C272.545 32.392 273.441 32.184 274.081 31.768C274.753 31.352 275.089 30.76 275.089 29.992C275.089 29.384 274.961 28.904 274.705 28.552C274.449 28.2 273.953 27.88 273.217 27.592C272.481 27.272 271.313 26.888 269.713 26.44C267.185 25.704 265.297 24.68 264.049 23.368C262.801 22.056 262.177 20.424 262.177 18.472C262.177 17 262.593 15.688 263.425 14.536C264.289 13.352 265.505 12.424 267.073 11.752C268.673 11.048 270.513 10.696 272.593 10.696Z" fill="white"/>
</svg>
